<mxfile host="app.diagrams.net" modified="2023-10-10T07:58:46.117Z" agent="Mozilla/5.0 (Windows NT 10.0; Win64; x64) AppleWebKit/537.36 (KHTML, like Gecko) Chrome/117.0.0.0 Safari/537.36" etag="6Vnl4z4M2qZK9BCaUORs" version="22.0.4" type="device" pages="3">
  <diagram id="C5RBs43oDa-KdzZeNtuy" name="1">
    <mxGraphModel dx="1017" dy="1126" grid="1" gridSize="10" guides="1" tooltips="1" connect="1" arrows="1" fold="1" page="1" pageScale="1" pageWidth="827" pageHeight="1169" math="0" shadow="0">
      <root>
        <mxCell id="WIyWlLk6GJQsqaUBKTNV-0" />
        <mxCell id="WIyWlLk6GJQsqaUBKTNV-1" parent="WIyWlLk6GJQsqaUBKTNV-0" />
        <mxCell id="60z7rqSnbfmdGBQPFte8-2" style="edgeStyle=orthogonalEdgeStyle;rounded=0;orthogonalLoop=1;jettySize=auto;html=1;entryX=0.5;entryY=0;entryDx=0;entryDy=0;" edge="1" parent="WIyWlLk6GJQsqaUBKTNV-1" source="60z7rqSnbfmdGBQPFte8-0" target="60z7rqSnbfmdGBQPFte8-1">
          <mxGeometry relative="1" as="geometry" />
        </mxCell>
        <mxCell id="60z7rqSnbfmdGBQPFte8-0" value="Start" style="ellipse;whiteSpace=wrap;html=1;" vertex="1" parent="WIyWlLk6GJQsqaUBKTNV-1">
          <mxGeometry x="170" y="80" width="120" height="80" as="geometry" />
        </mxCell>
        <mxCell id="60z7rqSnbfmdGBQPFte8-6" value="" style="edgeStyle=orthogonalEdgeStyle;rounded=0;orthogonalLoop=1;jettySize=auto;html=1;" edge="1" parent="WIyWlLk6GJQsqaUBKTNV-1" source="60z7rqSnbfmdGBQPFte8-1" target="60z7rqSnbfmdGBQPFte8-5">
          <mxGeometry relative="1" as="geometry" />
        </mxCell>
        <mxCell id="60z7rqSnbfmdGBQPFte8-1" value="String nama;&lt;br&gt;char jenisKelamin;&lt;br&gt;int i;" style="shape=hexagon;perimeter=hexagonPerimeter2;whiteSpace=wrap;html=1;fixedSize=1;" vertex="1" parent="WIyWlLk6GJQsqaUBKTNV-1">
          <mxGeometry x="170" y="230" width="120" height="80" as="geometry" />
        </mxCell>
        <mxCell id="60z7rqSnbfmdGBQPFte8-8" value="" style="edgeStyle=orthogonalEdgeStyle;rounded=0;orthogonalLoop=1;jettySize=auto;html=1;" edge="1" parent="WIyWlLk6GJQsqaUBKTNV-1" source="60z7rqSnbfmdGBQPFte8-5" target="60z7rqSnbfmdGBQPFte8-7">
          <mxGeometry relative="1" as="geometry" />
        </mxCell>
        <mxCell id="60z7rqSnbfmdGBQPFte8-5" value="i = 1;" style="whiteSpace=wrap;html=1;" vertex="1" parent="WIyWlLk6GJQsqaUBKTNV-1">
          <mxGeometry x="170" y="400" width="120" height="60" as="geometry" />
        </mxCell>
        <mxCell id="60z7rqSnbfmdGBQPFte8-10" value="" style="edgeStyle=orthogonalEdgeStyle;rounded=0;orthogonalLoop=1;jettySize=auto;html=1;" edge="1" parent="WIyWlLk6GJQsqaUBKTNV-1" source="60z7rqSnbfmdGBQPFte8-7" target="60z7rqSnbfmdGBQPFte8-9">
          <mxGeometry relative="1" as="geometry" />
        </mxCell>
        <mxCell id="60z7rqSnbfmdGBQPFte8-7" value="" style="ellipse;whiteSpace=wrap;html=1;" vertex="1" parent="WIyWlLk6GJQsqaUBKTNV-1">
          <mxGeometry x="210" y="490" width="40" height="40" as="geometry" />
        </mxCell>
        <mxCell id="60z7rqSnbfmdGBQPFte8-12" style="edgeStyle=orthogonalEdgeStyle;rounded=0;orthogonalLoop=1;jettySize=auto;html=1;entryX=0.5;entryY=0;entryDx=0;entryDy=0;" edge="1" parent="WIyWlLk6GJQsqaUBKTNV-1" source="60z7rqSnbfmdGBQPFte8-9" target="60z7rqSnbfmdGBQPFte8-11">
          <mxGeometry relative="1" as="geometry" />
        </mxCell>
        <mxCell id="60z7rqSnbfmdGBQPFte8-14" style="edgeStyle=orthogonalEdgeStyle;rounded=0;orthogonalLoop=1;jettySize=auto;html=1;entryX=0;entryY=0.5;entryDx=0;entryDy=0;" edge="1" parent="WIyWlLk6GJQsqaUBKTNV-1" source="60z7rqSnbfmdGBQPFte8-9" target="60z7rqSnbfmdGBQPFte8-13">
          <mxGeometry relative="1" as="geometry" />
        </mxCell>
        <mxCell id="60z7rqSnbfmdGBQPFte8-9" value="i &amp;lt;= 30" style="rhombus;whiteSpace=wrap;html=1;" vertex="1" parent="WIyWlLk6GJQsqaUBKTNV-1">
          <mxGeometry x="190" y="690" width="80" height="80" as="geometry" />
        </mxCell>
        <mxCell id="60z7rqSnbfmdGBQPFte8-11" value="End" style="ellipse;whiteSpace=wrap;html=1;" vertex="1" parent="WIyWlLk6GJQsqaUBKTNV-1">
          <mxGeometry x="170" y="820" width="120" height="80" as="geometry" />
        </mxCell>
        <mxCell id="60z7rqSnbfmdGBQPFte8-18" value="" style="edgeStyle=orthogonalEdgeStyle;rounded=0;orthogonalLoop=1;jettySize=auto;html=1;" edge="1" parent="WIyWlLk6GJQsqaUBKTNV-1" source="60z7rqSnbfmdGBQPFte8-13" target="60z7rqSnbfmdGBQPFte8-17">
          <mxGeometry relative="1" as="geometry" />
        </mxCell>
        <mxCell id="60z7rqSnbfmdGBQPFte8-13" value="nama, &lt;br&gt;jenisKelamin" style="shape=parallelogram;perimeter=parallelogramPerimeter;whiteSpace=wrap;html=1;fixedSize=1;" vertex="1" parent="WIyWlLk6GJQsqaUBKTNV-1">
          <mxGeometry x="320" y="700" width="120" height="60" as="geometry" />
        </mxCell>
        <mxCell id="60z7rqSnbfmdGBQPFte8-20" style="edgeStyle=orthogonalEdgeStyle;rounded=0;orthogonalLoop=1;jettySize=auto;html=1;entryX=1;entryY=0.5;entryDx=0;entryDy=0;" edge="1" parent="WIyWlLk6GJQsqaUBKTNV-1" source="60z7rqSnbfmdGBQPFte8-17" target="60z7rqSnbfmdGBQPFte8-19">
          <mxGeometry relative="1" as="geometry">
            <Array as="points">
              <mxPoint x="680" y="730" />
              <mxPoint x="680" y="510" />
            </Array>
          </mxGeometry>
        </mxCell>
        <mxCell id="60z7rqSnbfmdGBQPFte8-24" style="edgeStyle=orthogonalEdgeStyle;rounded=0;orthogonalLoop=1;jettySize=auto;html=1;entryX=0.5;entryY=1;entryDx=0;entryDy=0;" edge="1" parent="WIyWlLk6GJQsqaUBKTNV-1" source="60z7rqSnbfmdGBQPFte8-17" target="60z7rqSnbfmdGBQPFte8-22">
          <mxGeometry relative="1" as="geometry" />
        </mxCell>
        <mxCell id="60z7rqSnbfmdGBQPFte8-17" value="jenisKelamin&amp;nbsp;&lt;br&gt;== &#39;P&#39;" style="rhombus;whiteSpace=wrap;html=1;" vertex="1" parent="WIyWlLk6GJQsqaUBKTNV-1">
          <mxGeometry x="540" y="690" width="80" height="80" as="geometry" />
        </mxCell>
        <mxCell id="60z7rqSnbfmdGBQPFte8-23" style="edgeStyle=orthogonalEdgeStyle;rounded=0;orthogonalLoop=1;jettySize=auto;html=1;entryX=0.5;entryY=0;entryDx=0;entryDy=0;" edge="1" parent="WIyWlLk6GJQsqaUBKTNV-1" source="60z7rqSnbfmdGBQPFte8-19" target="60z7rqSnbfmdGBQPFte8-22">
          <mxGeometry relative="1" as="geometry" />
        </mxCell>
        <mxCell id="60z7rqSnbfmdGBQPFte8-19" value="print nama" style="shape=parallelogram;perimeter=parallelogramPerimeter;whiteSpace=wrap;html=1;fixedSize=1;" vertex="1" parent="WIyWlLk6GJQsqaUBKTNV-1">
          <mxGeometry x="520" y="480" width="120" height="60" as="geometry" />
        </mxCell>
        <mxCell id="60z7rqSnbfmdGBQPFte8-26" style="edgeStyle=orthogonalEdgeStyle;rounded=0;orthogonalLoop=1;jettySize=auto;html=1;entryX=1;entryY=0.5;entryDx=0;entryDy=0;" edge="1" parent="WIyWlLk6GJQsqaUBKTNV-1" source="60z7rqSnbfmdGBQPFte8-22" target="60z7rqSnbfmdGBQPFte8-25">
          <mxGeometry relative="1" as="geometry" />
        </mxCell>
        <mxCell id="60z7rqSnbfmdGBQPFte8-22" value="" style="ellipse;whiteSpace=wrap;html=1;" vertex="1" parent="WIyWlLk6GJQsqaUBKTNV-1">
          <mxGeometry x="560" y="610" width="40" height="40" as="geometry" />
        </mxCell>
        <mxCell id="60z7rqSnbfmdGBQPFte8-27" style="edgeStyle=orthogonalEdgeStyle;rounded=0;orthogonalLoop=1;jettySize=auto;html=1;entryX=1;entryY=0.5;entryDx=0;entryDy=0;" edge="1" parent="WIyWlLk6GJQsqaUBKTNV-1" source="60z7rqSnbfmdGBQPFte8-25" target="60z7rqSnbfmdGBQPFte8-7">
          <mxGeometry relative="1" as="geometry" />
        </mxCell>
        <mxCell id="60z7rqSnbfmdGBQPFte8-25" value="i++" style="rounded=0;whiteSpace=wrap;html=1;" vertex="1" parent="WIyWlLk6GJQsqaUBKTNV-1">
          <mxGeometry x="330" y="480" width="120" height="60" as="geometry" />
        </mxCell>
      </root>
    </mxGraphModel>
  </diagram>
  <diagram id="_jHjthJw_-0R37mqpyn9" name="2">
    <mxGraphModel dx="712" dy="788" grid="1" gridSize="10" guides="1" tooltips="1" connect="1" arrows="1" fold="1" page="1" pageScale="1" pageWidth="1000000" pageHeight="1000000" math="0" shadow="0">
      <root>
        <mxCell id="0" />
        <mxCell id="1" parent="0" />
        <mxCell id="ij-7VgHV8NSSgkk4A-HZ-3" style="edgeStyle=orthogonalEdgeStyle;rounded=0;orthogonalLoop=1;jettySize=auto;html=1;entryX=0.5;entryY=0;entryDx=0;entryDy=0;" edge="1" parent="1" source="ij-7VgHV8NSSgkk4A-HZ-1" target="ij-7VgHV8NSSgkk4A-HZ-2">
          <mxGeometry relative="1" as="geometry" />
        </mxCell>
        <mxCell id="ij-7VgHV8NSSgkk4A-HZ-1" value="Start" style="ellipse;whiteSpace=wrap;html=1;" vertex="1" parent="1">
          <mxGeometry x="80" y="80" width="120" height="80" as="geometry" />
        </mxCell>
        <mxCell id="ij-7VgHV8NSSgkk4A-HZ-5" style="edgeStyle=orthogonalEdgeStyle;rounded=0;orthogonalLoop=1;jettySize=auto;html=1;entryX=0.5;entryY=0;entryDx=0;entryDy=0;" edge="1" parent="1" source="ij-7VgHV8NSSgkk4A-HZ-2" target="ij-7VgHV8NSSgkk4A-HZ-4">
          <mxGeometry relative="1" as="geometry" />
        </mxCell>
        <mxCell id="ij-7VgHV8NSSgkk4A-HZ-2" value="int i, hasil = 0;" style="shape=hexagon;perimeter=hexagonPerimeter2;whiteSpace=wrap;html=1;fixedSize=1;" vertex="1" parent="1">
          <mxGeometry x="80" y="210" width="120" height="80" as="geometry" />
        </mxCell>
        <mxCell id="ij-7VgHV8NSSgkk4A-HZ-7" style="edgeStyle=orthogonalEdgeStyle;rounded=0;orthogonalLoop=1;jettySize=auto;html=1;entryX=0.5;entryY=0;entryDx=0;entryDy=0;" edge="1" parent="1" source="ij-7VgHV8NSSgkk4A-HZ-4" target="ij-7VgHV8NSSgkk4A-HZ-6">
          <mxGeometry relative="1" as="geometry" />
        </mxCell>
        <mxCell id="ij-7VgHV8NSSgkk4A-HZ-4" value="hasil = 25" style="rounded=0;whiteSpace=wrap;html=1;" vertex="1" parent="1">
          <mxGeometry x="80" y="340" width="120" height="60" as="geometry" />
        </mxCell>
        <mxCell id="ij-7VgHV8NSSgkk4A-HZ-9" value="" style="edgeStyle=orthogonalEdgeStyle;rounded=0;orthogonalLoop=1;jettySize=auto;html=1;" edge="1" parent="1" source="ij-7VgHV8NSSgkk4A-HZ-6" target="ij-7VgHV8NSSgkk4A-HZ-8">
          <mxGeometry relative="1" as="geometry" />
        </mxCell>
        <mxCell id="ij-7VgHV8NSSgkk4A-HZ-6" value="" style="ellipse;whiteSpace=wrap;html=1;aspect=fixed;" vertex="1" parent="1">
          <mxGeometry x="115" y="440" width="50" height="50" as="geometry" />
        </mxCell>
        <mxCell id="ij-7VgHV8NSSgkk4A-HZ-13" style="edgeStyle=orthogonalEdgeStyle;rounded=0;orthogonalLoop=1;jettySize=auto;html=1;entryX=0;entryY=0.5;entryDx=0;entryDy=0;" edge="1" parent="1" source="ij-7VgHV8NSSgkk4A-HZ-8" target="ij-7VgHV8NSSgkk4A-HZ-12">
          <mxGeometry relative="1" as="geometry" />
        </mxCell>
        <mxCell id="ij-7VgHV8NSSgkk4A-HZ-18" style="edgeStyle=orthogonalEdgeStyle;rounded=0;orthogonalLoop=1;jettySize=auto;html=1;entryX=0.5;entryY=0;entryDx=0;entryDy=0;" edge="1" parent="1" source="ij-7VgHV8NSSgkk4A-HZ-8" target="ij-7VgHV8NSSgkk4A-HZ-10">
          <mxGeometry relative="1" as="geometry" />
        </mxCell>
        <mxCell id="ij-7VgHV8NSSgkk4A-HZ-8" value="i &amp;gt;= 1" style="rhombus;whiteSpace=wrap;html=1;" vertex="1" parent="1">
          <mxGeometry x="100" y="600" width="80" height="80" as="geometry" />
        </mxCell>
        <mxCell id="ij-7VgHV8NSSgkk4A-HZ-10" value="End" style="ellipse;whiteSpace=wrap;html=1;" vertex="1" parent="1">
          <mxGeometry x="80" y="750" width="120" height="80" as="geometry" />
        </mxCell>
        <mxCell id="ij-7VgHV8NSSgkk4A-HZ-15" style="edgeStyle=orthogonalEdgeStyle;rounded=0;orthogonalLoop=1;jettySize=auto;html=1;" edge="1" parent="1" source="ij-7VgHV8NSSgkk4A-HZ-12" target="ij-7VgHV8NSSgkk4A-HZ-14">
          <mxGeometry relative="1" as="geometry" />
        </mxCell>
        <mxCell id="ij-7VgHV8NSSgkk4A-HZ-12" value="hasil = hasil + i" style="rounded=0;whiteSpace=wrap;html=1;" vertex="1" parent="1">
          <mxGeometry x="300" y="610" width="120" height="60" as="geometry" />
        </mxCell>
        <mxCell id="ij-7VgHV8NSSgkk4A-HZ-17" value="" style="edgeStyle=orthogonalEdgeStyle;rounded=0;orthogonalLoop=1;jettySize=auto;html=1;" edge="1" parent="1" source="ij-7VgHV8NSSgkk4A-HZ-14" target="ij-7VgHV8NSSgkk4A-HZ-16">
          <mxGeometry relative="1" as="geometry" />
        </mxCell>
        <mxCell id="ij-7VgHV8NSSgkk4A-HZ-14" value="print hasil" style="shape=parallelogram;perimeter=parallelogramPerimeter;whiteSpace=wrap;html=1;fixedSize=1;" vertex="1" parent="1">
          <mxGeometry x="300" y="520" width="120" height="40" as="geometry" />
        </mxCell>
        <mxCell id="ij-7VgHV8NSSgkk4A-HZ-19" style="edgeStyle=orthogonalEdgeStyle;rounded=0;orthogonalLoop=1;jettySize=auto;html=1;entryX=1;entryY=0.5;entryDx=0;entryDy=0;" edge="1" parent="1" source="ij-7VgHV8NSSgkk4A-HZ-16" target="ij-7VgHV8NSSgkk4A-HZ-6">
          <mxGeometry relative="1" as="geometry" />
        </mxCell>
        <mxCell id="ij-7VgHV8NSSgkk4A-HZ-16" value="i--" style="whiteSpace=wrap;html=1;" vertex="1" parent="1">
          <mxGeometry x="300" y="435" width="120" height="60" as="geometry" />
        </mxCell>
      </root>
    </mxGraphModel>
  </diagram>
  <diagram id="H3eQxyq6shPTAer6XfQi" name="3">
    <mxGraphModel dx="712" dy="788" grid="1" gridSize="10" guides="1" tooltips="1" connect="1" arrows="1" fold="1" page="1" pageScale="1" pageWidth="1000000" pageHeight="1000000" math="0" shadow="0">
      <root>
        <mxCell id="0" />
        <mxCell id="1" parent="0" />
        <mxCell id="z-iRm9hIKpmRFTVQev1A-3" style="edgeStyle=orthogonalEdgeStyle;rounded=0;orthogonalLoop=1;jettySize=auto;html=1;entryX=0.5;entryY=0;entryDx=0;entryDy=0;" edge="1" parent="1" source="z-iRm9hIKpmRFTVQev1A-1" target="z-iRm9hIKpmRFTVQev1A-2">
          <mxGeometry relative="1" as="geometry" />
        </mxCell>
        <mxCell id="z-iRm9hIKpmRFTVQev1A-1" value="Start" style="ellipse;whiteSpace=wrap;html=1;" vertex="1" parent="1">
          <mxGeometry x="80" y="40" width="120" height="80" as="geometry" />
        </mxCell>
        <mxCell id="z-iRm9hIKpmRFTVQev1A-5" value="" style="edgeStyle=orthogonalEdgeStyle;rounded=0;orthogonalLoop=1;jettySize=auto;html=1;" edge="1" parent="1" source="z-iRm9hIKpmRFTVQev1A-2" target="z-iRm9hIKpmRFTVQev1A-4">
          <mxGeometry relative="1" as="geometry" />
        </mxCell>
        <mxCell id="z-iRm9hIKpmRFTVQev1A-2" value="int i;" style="shape=hexagon;perimeter=hexagonPerimeter2;whiteSpace=wrap;html=1;fixedSize=1;" vertex="1" parent="1">
          <mxGeometry x="80" y="170" width="120" height="80" as="geometry" />
        </mxCell>
        <mxCell id="z-iRm9hIKpmRFTVQev1A-7" value="" style="edgeStyle=orthogonalEdgeStyle;rounded=0;orthogonalLoop=1;jettySize=auto;html=1;" edge="1" parent="1" source="z-iRm9hIKpmRFTVQev1A-4" target="z-iRm9hIKpmRFTVQev1A-6">
          <mxGeometry relative="1" as="geometry" />
        </mxCell>
        <mxCell id="z-iRm9hIKpmRFTVQev1A-4" value="i = 1" style="whiteSpace=wrap;html=1;" vertex="1" parent="1">
          <mxGeometry x="80" y="340" width="120" height="60" as="geometry" />
        </mxCell>
        <mxCell id="z-iRm9hIKpmRFTVQev1A-9" value="" style="edgeStyle=orthogonalEdgeStyle;rounded=0;orthogonalLoop=1;jettySize=auto;html=1;" edge="1" parent="1" source="z-iRm9hIKpmRFTVQev1A-6" target="z-iRm9hIKpmRFTVQev1A-8">
          <mxGeometry relative="1" as="geometry" />
        </mxCell>
        <mxCell id="z-iRm9hIKpmRFTVQev1A-6" value="" style="ellipse;whiteSpace=wrap;html=1;" vertex="1" parent="1">
          <mxGeometry x="115" y="470" width="50" height="50" as="geometry" />
        </mxCell>
        <mxCell id="z-iRm9hIKpmRFTVQev1A-11" style="edgeStyle=orthogonalEdgeStyle;rounded=0;orthogonalLoop=1;jettySize=auto;html=1;entryX=0.5;entryY=0;entryDx=0;entryDy=0;" edge="1" parent="1" source="z-iRm9hIKpmRFTVQev1A-8" target="z-iRm9hIKpmRFTVQev1A-10">
          <mxGeometry relative="1" as="geometry" />
        </mxCell>
        <mxCell id="z-iRm9hIKpmRFTVQev1A-12" value="Tidak" style="edgeLabel;html=1;align=center;verticalAlign=middle;resizable=0;points=[];" vertex="1" connectable="0" parent="z-iRm9hIKpmRFTVQev1A-11">
          <mxGeometry x="-0.2727" y="1" relative="1" as="geometry">
            <mxPoint as="offset" />
          </mxGeometry>
        </mxCell>
        <mxCell id="z-iRm9hIKpmRFTVQev1A-14" value="" style="edgeStyle=orthogonalEdgeStyle;rounded=0;orthogonalLoop=1;jettySize=auto;html=1;" edge="1" parent="1" source="z-iRm9hIKpmRFTVQev1A-8" target="z-iRm9hIKpmRFTVQev1A-13">
          <mxGeometry relative="1" as="geometry" />
        </mxCell>
        <mxCell id="z-iRm9hIKpmRFTVQev1A-15" value="Ya" style="edgeLabel;html=1;align=center;verticalAlign=middle;resizable=0;points=[];" vertex="1" connectable="0" parent="z-iRm9hIKpmRFTVQev1A-14">
          <mxGeometry x="-0.375" relative="1" as="geometry">
            <mxPoint as="offset" />
          </mxGeometry>
        </mxCell>
        <mxCell id="z-iRm9hIKpmRFTVQev1A-8" value="i &amp;lt;= 50" style="rhombus;whiteSpace=wrap;html=1;" vertex="1" parent="1">
          <mxGeometry x="100" y="585" width="80" height="80" as="geometry" />
        </mxCell>
        <mxCell id="z-iRm9hIKpmRFTVQev1A-17" style="edgeStyle=orthogonalEdgeStyle;rounded=0;orthogonalLoop=1;jettySize=auto;html=1;entryX=0.5;entryY=0;entryDx=0;entryDy=0;" edge="1" parent="1" source="z-iRm9hIKpmRFTVQev1A-10" target="z-iRm9hIKpmRFTVQev1A-16">
          <mxGeometry relative="1" as="geometry" />
        </mxCell>
        <mxCell id="z-iRm9hIKpmRFTVQev1A-10" value="print &quot;Program Berhenti&quot;" style="shape=parallelogram;perimeter=parallelogramPerimeter;whiteSpace=wrap;html=1;fixedSize=1;" vertex="1" parent="1">
          <mxGeometry x="80" y="720" width="120" height="60" as="geometry" />
        </mxCell>
        <mxCell id="z-iRm9hIKpmRFTVQev1A-19" value="" style="edgeStyle=orthogonalEdgeStyle;rounded=0;orthogonalLoop=1;jettySize=auto;html=1;" edge="1" parent="1" source="z-iRm9hIKpmRFTVQev1A-13" target="z-iRm9hIKpmRFTVQev1A-18">
          <mxGeometry relative="1" as="geometry" />
        </mxCell>
        <mxCell id="z-iRm9hIKpmRFTVQev1A-22" style="edgeStyle=orthogonalEdgeStyle;rounded=0;orthogonalLoop=1;jettySize=auto;html=1;entryX=0;entryY=0.5;entryDx=0;entryDy=0;" edge="1" parent="1" source="z-iRm9hIKpmRFTVQev1A-13" target="z-iRm9hIKpmRFTVQev1A-21">
          <mxGeometry relative="1" as="geometry" />
        </mxCell>
        <mxCell id="z-iRm9hIKpmRFTVQev1A-13" value="i%3" style="rhombus;whiteSpace=wrap;html=1;" vertex="1" parent="1">
          <mxGeometry x="260" y="585" width="80" height="80" as="geometry" />
        </mxCell>
        <mxCell id="z-iRm9hIKpmRFTVQev1A-16" value="End" style="ellipse;whiteSpace=wrap;html=1;" vertex="1" parent="1">
          <mxGeometry x="80" y="840" width="120" height="80" as="geometry" />
        </mxCell>
        <mxCell id="z-iRm9hIKpmRFTVQev1A-20" style="edgeStyle=orthogonalEdgeStyle;rounded=0;orthogonalLoop=1;jettySize=auto;html=1;entryX=1;entryY=0.5;entryDx=0;entryDy=0;" edge="1" parent="1" source="z-iRm9hIKpmRFTVQev1A-18" target="z-iRm9hIKpmRFTVQev1A-6">
          <mxGeometry relative="1" as="geometry" />
        </mxCell>
        <mxCell id="z-iRm9hIKpmRFTVQev1A-18" value="i++" style="whiteSpace=wrap;html=1;" vertex="1" parent="1">
          <mxGeometry x="240" y="465" width="120" height="60" as="geometry" />
        </mxCell>
        <mxCell id="z-iRm9hIKpmRFTVQev1A-23" style="edgeStyle=orthogonalEdgeStyle;rounded=0;orthogonalLoop=1;jettySize=auto;html=1;entryX=1;entryY=0.5;entryDx=0;entryDy=0;" edge="1" parent="1" source="z-iRm9hIKpmRFTVQev1A-21" target="z-iRm9hIKpmRFTVQev1A-18">
          <mxGeometry relative="1" as="geometry">
            <Array as="points">
              <mxPoint x="500" y="495" />
            </Array>
          </mxGeometry>
        </mxCell>
        <mxCell id="z-iRm9hIKpmRFTVQev1A-21" value="print i" style="shape=parallelogram;perimeter=parallelogramPerimeter;whiteSpace=wrap;html=1;fixedSize=1;" vertex="1" parent="1">
          <mxGeometry x="430" y="595" width="120" height="60" as="geometry" />
        </mxCell>
      </root>
    </mxGraphModel>
  </diagram>
</mxfile>
